<svg width="118" height="74" viewBox="0 0 118 74" fill="none" xmlns="http://www.w3.org/2000/svg"><path d="M74.9 8.70007H43.4V65.3001H74.9V8.70007Z" fill="#FF5F00"/><path d="M45.4 37C45.4 26 50.5 15.5 59.1 8.70002C43.5 -3.59998 20.8 -0.899978 8.49999 14.8C-3.70001 30.4 -1.00001 53 14.7 65.3C27.8 75.6 46.1 75.6 59.2 65.3C50.5 58.5 45.4 48 45.4 37Z" fill="#EB001B"/><path d="M117.4 37C117.4 56.9 101.3 73 81.4 73C73.3 73 65.5 70.3 59.2 65.3C74.8 53 77.5 30.4 65.2 14.7C63.4 12.5 61.4 10.4 59.2 8.70002C74.8 -3.59998 97.5 -0.899978 109.7 14.8C114.7 21.1 117.4 28.9 117.4 37Z" fill="#F79E1B"/></svg>