<svg width="32" height="32" viewBox="0 0 32 32" fill="none" xmlns="http://www.w3.org/2000/svg"><g clip-path="url(#clip0_4105_37077)"><path d="M16 32C24.8366 32 32 24.8366 32 16C32 7.16344 24.8366 0 16 0C7.16344 0 0 7.16344 0 16C0 24.8366 7.16344 32 16 32Z" fill="#E2F6F0"/><path d="M11 10.5C11 10.2239 10.7761 10 10.5 10C10.2239 10 10 10.2239 10 10.5V11.5C10 11.7761 10.2239 12 10.5 12C10.7761 12 11 11.7761 11 11.5V10.5Z" fill="#37A98D"/><path d="M14 10.5C14 10.2239 13.7761 10 13.5 10C13.2239 10 13 10.2239 13 10.5V11.5C13 11.7761 13.2239 12 13.5 12C13.7761 12 14 11.7761 14 11.5V10.5Z" fill="#37A98D"/><path d="M17 10.5C17 10.2239 16.7761 10 16.5 10C16.2239 10 16 10.2239 16 10.5V11.5C16 11.7761 16.2239 12 16.5 12C16.7761 12 17 11.7761 17 11.5V10.5Z" fill="#37A98D"/><path d="M11 13.5C11 13.2239 10.7761 13 10.5 13C10.2239 13 10 13.2239 10 13.5V14.5C10 14.7761 10.2239 15 10.5 15C10.7761 15 11 14.7761 11 14.5V13.5Z" fill="#37A98D"/><path d="M14 13.5C14 13.2239 13.7761 13 13.5 13C13.2239 13 13 13.2239 13 13.5V14.5C13 14.7761 13.2239 15 13.5 15C13.7761 15 14 14.7761 14 14.5V13.5Z" fill="#37A98D"/><path d="M11 16.5C11 16.2239 10.7761 16 10.5 16C10.2239 16 10 16.2239 10 16.5V17.5C10 17.7761 10.2239 18 10.5 18C10.7761 18 11 17.7761 11 17.5V16.5Z" fill="#37A98D"/><path d="M14 16.5C14 16.2239 13.7761 16 13.5 16C13.2239 16 13 16.2239 13 16.5V17.5C13 17.7761 13.2239 18 13.5 18C13.7761 18 14 17.7761 14 17.5V16.5Z" fill="#37A98D"/><path fill-rule="evenodd" clip-rule="evenodd" d="M8.5 8C8.22386 8 8 8.22386 8 8.5V21.5C8 21.7761 8.22386 22 8.5 22H12.5C12.7761 22 13 21.7761 13 21.5V20H14V21.5C14 21.7761 14.2239 22 14.5 22H16V22.5C16 22.6326 16.0527 22.7598 16.1464 22.8536L16.5 22.5C16.1464 22.8536 16.1462 22.8533 16.1464 22.8536L16.1474 22.8545L16.1484 22.8555L16.1507 22.8577L16.1564 22.8633L16.1727 22.8786C16.1856 22.8906 16.2028 22.9059 16.2244 22.9242C16.2674 22.9608 16.328 23.009 16.407 23.0647C16.5651 23.1763 16.7966 23.3179 17.1094 23.4569C17.7369 23.7358 18.6811 24 20 24C21.3189 24 22.2631 23.7358 22.8906 23.4569C23.2034 23.3179 23.4349 23.1763 23.593 23.0647C23.672 23.009 23.7326 22.9608 23.7756 22.9242C23.7972 22.9059 23.8144 22.8906 23.8273 22.8786L23.8436 22.8633L23.8493 22.8577L23.8516 22.8555L23.8526 22.8545C23.8529 22.8542 23.8536 22.8536 23.5 22.5L23.8536 22.8536C23.9473 22.7598 24 22.6326 24 22.5V15.5C24 15.3674 23.9473 15.2402 23.8536 15.1464L23.5 15.5C23.8536 15.1464 23.8538 15.1467 23.8536 15.1464L23.8526 15.1455L23.8516 15.1445L23.8493 15.1423L23.8436 15.1367L23.8273 15.1214C23.8144 15.1094 23.7972 15.0941 23.7756 15.0758C23.7326 15.0392 23.672 14.991 23.593 14.9353C23.4349 14.8237 23.2034 14.6821 22.8906 14.5431C22.2631 14.2642 21.3189 14 20 14C19.639 14 19.3061 14.0198 19 14.0543V8.5C19 8.22386 18.7761 8 18.5 8H8.5ZM17 22.2592V20.4066C17.0353 20.4233 17.0718 20.4401 17.1095 20.4569C17.737 20.7357 18.6812 21 20.0001 21C21.3189 21 22.2632 20.7357 22.8907 20.4569C22.9283 20.4401 22.9647 20.4234 23 20.4067V22.2592C22.8914 22.3343 22.7218 22.4376 22.4844 22.5431C21.9869 22.7642 21.1811 23 20 23C18.8189 23 18.0131 22.7642 17.5156 22.5431C17.2782 22.4376 17.1086 22.3343 17 22.2592ZM23 19.2592C22.8914 19.3344 22.7219 19.4376 22.4845 19.5431C21.987 19.7642 21.1812 20 20.0001 20C18.8189 20 18.0132 19.7642 17.5157 19.5431C17.2782 19.4375 17.1085 19.3342 17 19.2591V17.4066C17.0353 17.4233 17.0718 17.4401 17.1095 17.4569C17.737 17.7357 18.6812 18 20.0001 18C21.3189 18 22.2632 17.7357 22.8907 17.4569C22.9283 17.4401 22.9647 17.4234 23 17.4067V19.2592ZM23 16.2592C22.8914 16.3344 22.7219 16.4376 22.4845 16.5431C21.987 16.7642 21.1812 17 20.0001 17C18.8189 17 18.0132 16.7642 17.5157 16.5431C17.2782 16.4375 17.1085 16.3342 17 16.2591V15.7408C17.1086 15.6657 17.2782 15.5624 17.5156 15.4569C18.0131 15.2358 18.8189 15 20 15C21.1811 15 21.9869 15.2358 22.4844 15.4569C22.7218 15.5624 22.8914 15.6657 23 15.7408V16.2592ZM15 21H16V15.5C16 15.3674 16.0527 15.2402 16.1464 15.1464L16.5 15.5C16.1464 15.1464 16.1462 15.1467 16.1464 15.1464L16.1474 15.1455L16.1484 15.1445L16.1507 15.1423L16.1564 15.1367L16.1727 15.1214C16.1856 15.1094 16.2028 15.0941 16.2244 15.0758C16.2674 15.0392 16.328 14.991 16.407 14.9353C16.5651 14.8237 16.7966 14.6821 17.1094 14.5431C17.3561 14.4334 17.6518 14.3261 18 14.2361V9H9V21H12V19.5C12 19.2239 12.2239 19 12.5 19H14.5C14.7761 19 15 19.2239 15 19.5V21Z" fill="#37A98D"/></g><defs><clipPath id="clip0_4105_37077"><rect width="32" height="32" fill="white"/></clipPath></defs></svg>