<svg width="32" height="32" viewBox="0 0 32 32" xmlns="http://www.w3.org/2000/svg"><g clip-path="url(#clip0_4120_40380)"><g clip-path="url(#clip1_4120_40380)"><path d="M16 32C24.8366 32 32 24.8366 32 16C32 7.16344 24.8366 0 16 0C7.16344 0 0 7.16344 0 16C0 24.8366 7.16344 32 16 32Z" fill="#E2F6F0"/><path fill-rule="evenodd" clip-rule="evenodd" d="M8 9C8 8.44772 8.44771 8 9 8H13C13.5523 8 14 8.44772 14 9V15.9597L18.1877 12.6096C18.3377 12.4895 18.5434 12.4661 18.7166 12.5493C18.8898 12.6326 19 12.8078 19 13V15.9597L23.1877 12.6096C23.3377 12.4895 23.5434 12.4661 23.7166 12.5493C23.8898 12.6326 24 12.8078 24 13V23C24 23.5523 23.5523 24 23 24H9C8.44772 24 8 23.5523 8 23V9ZM13 9L9 9V23H23V14.0403L19.6247 16.7406C18.9699 17.2644 18 16.7982 18 15.9597V14.0403L14.6247 16.7406C13.9699 17.2644 13 16.7982 13 15.9597V9Z" fill="#37A98D"/></g></g><defs><clipPath id="clip0_4120_40380"><rect width="32" height="32" fill="white"/></clipPath><clipPath id="clip1_4120_40380"><rect width="32" height="32" fill="white"/></clipPath></defs></svg>