<svg version="1.1" id="ehi_logo" xmlns="http://www.w3.org/2000/svg" xmlns:xlink="http://www.w3.org/1999/xlink" x="0px" y="0px" viewBox="0 0 169.91 43.18" style="enable-background:new 0 0 169.91 43.18;" xml:space="preserve"><g><path fill="#181818" d="M56.18,23.79c-0.49-1.01-1.32-2.03-2.54-2.25c0.02,0,0.11-0.02,0.18-0.02c2.25-0.31,3.22-1.94,3.22-3.61
			c0-1.42-0.79-3.65-4.45-3.65H48.8c-0.26,0-0.51,0.22-0.51,0.48v13.72c0,0.26,0.24,0.48,0.51,0.48h1.06c0.26,0,0.49-0.22,0.49-0.48
			v-6.12h1.04c1.48,0,2.16,0.92,2.67,1.83c0.62,1.14,1.04,2.71,1.61,4.41c0.09,0.28,0.29,0.35,0.53,0.35h1.46
			c0.4,0,0.46-0.24,0.33-0.59C57.2,26.23,56.45,24.36,56.18,23.79z M52.3,20.62h-1.96v-4.54h2.2c1.59,0,2.4,0.94,2.4,2.12
			C54.95,19.7,53.93,20.62,52.3,20.62z"/><path fill="#181818" d="M62.91,18.26c-2.45,0-4.06,2.08-4.06,5.35c0,3.58,1.7,5.44,4.7,5.44c1.3,0,2.05-0.2,2.73-0.5
			c0.26-0.11,0.37-0.33,0.29-0.59l-0.24-0.7c-0.09-0.24-0.27-0.42-0.6-0.3c-0.64,0.2-1.23,0.37-2.07,0.37
			c-1.94,0-2.62-1.14-2.71-3.17h5.47c0.26,0,0.49-0.22,0.49-0.48C66.9,19.68,65.13,18.26,62.91,18.26z M60.94,22.67
			c0.22-2.27,1.23-2.82,2.03-2.82c1.37,0,1.83,1.42,1.87,2.82H60.94z"/><path fill="#181818" d="M73.42,27.61c-0.04-0.27-0.26-0.4-0.51-0.36c-0.2,0.04-0.51,0.09-0.68,0.09c-0.51,0-0.75-0.27-0.75-0.87v-6.7
			h1.26c0.26,0,0.46-0.22,0.46-0.49v-0.6c0-0.27-0.2-0.49-0.46-0.49h-1.26v-2.8c0-0.4-0.29-0.42-0.62-0.33l-0.99,0.29
			c-0.24,0.07-0.38,0.29-0.38,0.58v2.27H68.3c-0.29,0-0.46,0.22-0.46,0.49v0.6c0,0.27,0.18,0.49,0.46,0.49h1.19v7.03
			c0,1.49,0.73,2.25,2.29,2.25c0.53,0,1.06-0.07,1.41-0.18c0.31-0.09,0.37-0.31,0.33-0.58L73.42,27.61z"/><path fill="#181818" d="M82.19,27.83c-0.13-0.63-0.11-1.25-0.11-1.79v-3.78c0-1.79-0.26-4-3.77-4c-0.95,0-2.05,0.24-2.67,0.41
			c-0.29,0.09-0.37,0.28-0.31,0.57l0.18,0.81c0.07,0.26,0.29,0.44,0.57,0.35c0.6-0.15,1.23-0.37,2.12-0.37c1.54,0,1.9,0.59,1.9,1.86
			v0.52l-2.4,0.15c-1.79,0.11-3.31,1.03-3.31,3.36c0,1.97,1.08,3.12,2.84,3.12c1.21,0,2.36-0.44,3.02-1.51l0.16,0.96
			c0.04,0.31,0.24,0.44,0.51,0.44h1.01c0.29,0,0.46-0.2,0.4-0.48L82.19,27.83z M80.1,25.45c0,0.81-0.9,2.01-2.29,2.01
			c-0.79,0-1.39-0.48-1.39-1.53c0-1.64,0.97-2.03,2.32-2.08l1.37-0.04V25.45z"/><path fill="#181818" d="M86.19,14.96c-0.75,0-1.37,0.57-1.37,1.24s0.62,1.22,1.37,1.22c0.75,0,1.39-0.55,1.39-1.22
			S86.93,14.96,86.19,14.96z"/><path fill="#181818" d="M86.74,19.46h-2.62c-0.29,0-0.46,0.2-0.46,0.43v0.53c0,0.24,0.18,0.43,0.46,0.43h1.15v7.66
			c0,0.24,0.24,0.43,0.51,0.43h0.97c0.26,0,0.51-0.2,0.51-0.43v-8.64C87.24,19.61,87.02,19.46,86.74,19.46z"/><path fill="#181818" d="M94.01,27.71c-0.07-0.28-0.24-0.35-0.53-0.29c-0.24,0.06-0.51,0.12-0.71,0.12c-0.46,0-0.53-0.28-0.53-0.77
			V15.45c0-0.25-0.22-0.43-0.49-0.43h-0.99c-0.26,0-0.49,0.18-0.49,0.43v11.77c0,1.16,0.62,1.83,2.12,1.83
			c0.57,0,1.04-0.08,1.45-0.22c0.24-0.08,0.35-0.22,0.31-0.43L94.01,27.71z"/><path fill="#181818" d="M103.51,14.26h-4.04c-0.29,0-0.49,0.22-0.49,0.48v0.61c0,0.26,0.2,0.5,0.49,0.5h0.99v11.49h-0.99
			c-0.29,0-0.49,0.24-0.49,0.5v0.61c0,0.26,0.2,0.48,0.49,0.48h4.04c0.29,0,0.48-0.22,0.48-0.48v-0.61c0-0.26-0.2-0.5-0.48-0.5h-0.99
			V15.86h0.99c0.29,0,0.48-0.24,0.48-0.5v-0.61C104,14.48,103.8,14.26,103.51,14.26z"/><path fill="#181818" d="M110.94,18.26c-1.15,0-2.07,0.44-3,1.51l-0.22-0.98c-0.07-0.26-0.22-0.39-0.53-0.39h-0.66
			c-0.26,0-0.51,0.17-0.51,0.46v9.61c0,0.26,0.24,0.48,0.51,0.48h1.01c0.26,0,0.49-0.22,0.49-0.48v-5.92c0-1.46,1.04-2.58,2.36-2.58
			c0.9,0,1.25,0.44,1.25,1.46v7.04c0,0.26,0.24,0.48,0.51,0.48h1.02c0.26,0,0.48-0.22,0.48-0.48v-7.47
			C113.65,19.35,112.6,18.26,110.94,18.26z"/><path fill="#181818" d="M119.94,22.74c-0.95-0.52-1.81-0.96-1.81-1.7c0-0.7,0.53-1.18,1.43-1.18c0.69,0,1.35,0.22,1.79,0.39
			c0.26,0.09,0.46,0.02,0.57-0.26l0.24-0.63c0.11-0.26-0.02-0.5-0.26-0.61c-0.66-0.31-1.3-0.48-2.36-0.48c-2.12,0-3.4,1.2-3.4,2.91
			c0,1.53,1.21,2.27,2.38,2.91c1.06,0.57,2.07,1.07,2.07,1.99c0,0.81-0.46,1.27-1.48,1.27c-0.86,0-1.72-0.26-2.45-0.59
			c-0.27-0.11-0.51,0-0.59,0.31l-0.24,0.79c-0.09,0.26-0.02,0.48,0.26,0.61c0.84,0.39,2.03,0.61,3.02,0.61c2.25,0,3.5-1.33,3.5-3.04
			C122.63,24.22,121.19,23.42,119.94,22.74z"/><path fill="#181818" d="M129.07,27.61c-0.04-0.27-0.26-0.4-0.5-0.36c-0.2,0.04-0.51,0.09-0.68,0.09c-0.51,0-0.75-0.27-0.75-0.87v-6.7
			h1.26c0.26,0,0.46-0.22,0.46-0.49v-0.6c0-0.27-0.2-0.49-0.46-0.49h-1.26v-2.8c0-0.4-0.29-0.42-0.62-0.33l-0.99,0.29
			c-0.24,0.07-0.37,0.29-0.37,0.58v2.27h-1.19c-0.29,0-0.46,0.22-0.46,0.49v0.6c0,0.27,0.17,0.49,0.46,0.49h1.19v7.03
			c0,1.49,0.73,2.25,2.29,2.25c0.53,0,1.06-0.07,1.41-0.18c0.31-0.09,0.37-0.31,0.33-0.58L129.07,27.61z"/><path fill="#181818" d="M132.11,14.96c-0.75,0-1.37,0.57-1.37,1.24s0.62,1.22,1.37,1.22c0.75,0,1.39-0.55,1.39-1.22
			S132.86,14.96,132.11,14.96z"/><path fill="#181818" d="M132.66,19.46h-2.62c-0.29,0-0.46,0.2-0.46,0.43v0.53c0,0.24,0.18,0.43,0.46,0.43h1.15v7.66
			c0,0.24,0.24,0.43,0.51,0.43h0.97c0.26,0,0.51-0.2,0.51-0.43v-8.64C133.17,19.61,132.95,19.46,132.66,19.46z"/><path fill="#181818" d="M140.42,27.61c-0.04-0.27-0.26-0.4-0.51-0.36c-0.2,0.04-0.51,0.09-0.68,0.09c-0.51,0-0.75-0.27-0.75-0.87v-6.7
			h1.26c0.26,0,0.46-0.22,0.46-0.49v-0.6c0-0.27-0.2-0.49-0.46-0.49h-1.26v-2.8c0-0.4-0.29-0.42-0.62-0.33l-0.99,0.29
			c-0.24,0.07-0.37,0.29-0.37,0.58v2.27h-1.19c-0.29,0-0.46,0.22-0.46,0.49v0.6c0,0.27,0.18,0.49,0.46,0.49h1.19v7.03
			c0,1.49,0.73,2.25,2.29,2.25c0.53,0,1.06-0.07,1.41-0.18c0.31-0.09,0.37-0.31,0.33-0.58L140.42,27.61z"/><path fill="#181818" d="M149.39,18.39h-1.04c-0.27,0-0.49,0.17-0.49,0.46v5.4c0,2.08-1.04,3.15-2.47,3.15c-0.79,0-1.26-0.46-1.26-1.4
			v-7.14c0-0.28-0.24-0.46-0.51-0.46h-1.01c-0.26,0-0.5,0.17-0.5,0.46v7.45c0,1.79,1.06,2.75,2.67,2.75c1.76,0,2.56-0.9,3.17-1.55
			l0.26,1.03c0.07,0.26,0.24,0.42,0.49,0.42h0.68c0.26,0,0.48-0.22,0.48-0.48v-9.61C149.88,18.57,149.66,18.39,149.39,18.39z"/><path fill="#181818" d="M156.96,27.61c-0.04-0.27-0.26-0.4-0.51-0.36c-0.2,0.04-0.51,0.09-0.68,0.09c-0.51,0-0.75-0.27-0.75-0.87v-6.7
			h1.26c0.26,0,0.46-0.22,0.46-0.49v-0.6c0-0.27-0.2-0.49-0.46-0.49h-1.26v-2.8c0-0.4-0.29-0.42-0.62-0.33l-0.99,0.29
			c-0.24,0.07-0.37,0.29-0.37,0.58v2.27h-1.19c-0.29,0-0.46,0.22-0.46,0.49v0.6c0,0.27,0.17,0.49,0.46,0.49h1.19v7.03
			c0,1.49,0.73,2.25,2.29,2.25c0.53,0,1.06-0.07,1.41-0.18c0.31-0.09,0.37-0.31,0.33-0.58L156.96,27.61z"/><path fill="#181818" d="M168.99,9.86c-0.61-0.61-1.36-0.91-2.23-0.91c-0.87,0-1.6,0.3-2.21,0.91c-0.62,0.61-0.92,1.35-0.92,2.22
			c0,0.87,0.3,1.61,0.91,2.23c0.61,0.62,1.35,0.92,2.22,0.92c0.87,0,1.61-0.31,2.23-0.92c0.61-0.61,0.92-1.36,0.92-2.23
			C169.91,11.21,169.6,10.47,168.99,9.86z M168.69,14c-0.53,0.53-1.17,0.79-1.92,0.79c-0.75,0-1.39-0.27-1.92-0.79
			c-0.53-0.53-0.79-1.17-0.79-1.92c0-0.75,0.26-1.38,0.79-1.91c0.53-0.53,1.17-0.79,1.92-0.79c0.75,0,1.39,0.27,1.92,0.79
			c0.53,0.53,0.79,1.16,0.79,1.91C169.48,12.83,169.21,13.47,168.69,14z"/><path fill="#181818" d="M168.19,11.35c0-0.43-0.18-0.73-0.54-0.88c-0.2-0.08-0.52-0.12-0.95-0.12h-1.21v3.45h0.58v-1.35h0.49
			c0.33,0,0.56,0.04,0.69,0.11c0.22,0.13,0.33,0.39,0.33,0.78v0.27l0.01,0.11c0,0.01,0,0.03,0.01,0.04c0,0.01,0.01,0.02,0.01,0.03
			h0.57l-0.02-0.04c-0.01-0.03-0.02-0.09-0.03-0.18c-0.01-0.09-0.01-0.18-0.01-0.25v-0.25c0-0.17-0.06-0.35-0.19-0.53
			c-0.13-0.18-0.32-0.29-0.59-0.34c0.21-0.03,0.38-0.09,0.5-0.17C168.08,11.88,168.19,11.66,168.19,11.35z M167.24,11.94
			c-0.13,0.05-0.33,0.08-0.6,0.08h-0.56v-1.24h0.54c0.35,0,0.6,0.04,0.76,0.13c0.16,0.09,0.24,0.25,0.24,0.5
			C167.6,11.67,167.48,11.84,167.24,11.94z"/><path fill="#181818" d="M0,43.18h43.18V0H0V43.18z M33.54,14.2h3.19v14.77h-3.19V14.2z M18.76,14.2h2.87v5.97h5.75V14.2h2.87v14.77
			h-2.87V22.5h-5.75v6.48h-2.87V14.2z M6.17,14.2h9.79v2.33H9.5l0,3.64h5.92v2.33H9.5v4.15h6.45l0.01,2.33H6.17V14.2z"/><path fill="#181818" d="M161.96,18.34c-2.45,0-4.06,2.08-4.06,5.35c0,3.58,1.7,5.44,4.7,5.44c1.3,0,2.05-0.2,2.73-0.5
			c0.27-0.11,0.38-0.33,0.29-0.59l-0.24-0.7c-0.09-0.24-0.27-0.41-0.6-0.3c-0.64,0.2-1.23,0.37-2.07,0.37
			c-1.94,0-2.62-1.14-2.71-3.17h5.47c0.26,0,0.49-0.22,0.49-0.48C165.95,19.76,164.19,18.34,161.96,18.34z M160,22.75
			c0.22-2.27,1.24-2.82,2.03-2.82c1.37,0,1.83,1.42,1.88,2.82H160z"/></g></svg>