<svg width="32" height="32" viewBox="0 0 32 32" fill="none" xmlns="http://www.w3.org/2000/svg"><g clip-path="url(#clip0_4106_37080)"><path d="M16 32C24.8366 32 32 24.8366 32 16C32 7.16344 24.8366 0 16 0C7.16344 0 0 7.16344 0 16C0 24.8366 7.16344 32 16 32Z" fill="#E2F6F0"/><path fill-rule="evenodd" clip-rule="evenodd" d="M25 16C25 20.9706 20.9706 25 16 25C11.0294 25 7 20.9706 7 16C7 11.0294 11.0294 7 16 7C20.9706 7 25 11.0294 25 16ZM15.1966 8.53649C15.5642 8.11635 15.8441 8 16 8C16.1559 8 16.4358 8.11635 16.8034 8.53649C17.1557 8.93919 17.5212 9.54706 17.8519 10.3305C18.466 11.7855 18.9315 13.7776 18.9931 16H13.0069C13.0685 13.7776 13.534 11.7855 14.1481 10.3305C14.4788 9.54706 14.8443 8.93919 15.1966 8.53649ZM12.0066 16C12.0683 13.65 12.5588 11.5242 13.2269 9.94159C13.512 9.26602 13.8349 8.67674 14.18 8.20794C10.6386 9.03185 8 12.2078 8 16H12.0066ZM8.06189 17H12.0066C12.0688 19.3211 12.5604 21.2241 13.24 22.5871C13.4568 23.0218 13.6954 23.4069 13.9495 23.7348C10.8374 22.9119 8.46849 20.2607 8.06189 17ZM13.007 17H18.993C18.9311 19.1873 18.467 20.9338 17.865 22.1408C17.541 22.7907 17.1845 23.2694 16.8436 23.5788C16.4979 23.8926 16.2063 24 16 24C15.7937 24 15.5021 23.8926 15.1564 23.5788C14.8155 23.2694 14.459 22.7907 14.135 22.1408C13.533 20.9338 13.0689 19.1873 13.007 17ZM19.9934 17C19.9312 19.3211 19.4396 21.2241 18.76 22.5871C18.5432 23.0218 18.3046 23.4069 18.0505 23.7348C21.1626 22.9119 23.5315 20.2607 23.9381 17H19.9934ZM24 16C24 12.2078 21.3614 9.03185 17.82 8.20794C18.1651 8.67674 18.488 9.26601 18.7731 9.94159C19.4412 11.5242 19.9317 13.65 19.9934 16H24Z" fill="#37A98D"/></g><defs><clipPath id="clip0_4106_37080"><rect width="32" height="32" fill="white"/></clipPath></defs></svg>