<svg xmlns="http://www.w3.org/2000/svg" viewBox="0 0 302 38"><path d="M0 31.6L4.6 26c3.2 2.7 6.6 4.3 10.7 4.3 3.2 0 5.2-1.3 5.2-3.4v.1c0-2-1.2-3-7.2-4.5-7.2-1.9-11.9-3.9-11.9-11v-.1C1.4 4.9 6.6.6 13.9.6c5.2 0 9.6 1.6 13.3 4.5L23.1 11c-3.2-2.2-6.3-3.5-9.3-3.5-3 0-4.6 1.4-4.6 3.1v.1c0 2.3 1.5 3.1 7.7 4.7 7.2 1.9 11.3 4.5 11.3 10.7v.1c0 7.1-5.4 11.1-13.1 11.1-5.4.1-10.8-1.8-15.1-5.7M37.6 1.1h7.9v14.2H60V1.1h7.8v35.8H60V22.5H45.5v14.4h-7.9zM107.1 19.1V19c0-6.1-4.5-11.2-10.8-11.2-6.3 0-10.7 5-10.7 11.1v.1c0 6.1 4.5 11.2 10.8 11.2 6.3 0 10.7-5 10.7-11.1m-29.7 0V19c0-10.2 8-18.5 19-18.5s18.9 8.2 18.9 18.4v.1c0 10.2-8 18.5-19 18.5s-18.9-8.2-18.9-18.4M138.2 19.2c3.9 0 6.2-2.3 6.2-5.4v-.1c0-3.5-2.4-5.4-6.4-5.4h-6v10.9h6.2zm-14-18.1h14.6c8.5 0 13.7 5 13.7 12.3v.1c0 8.3-6.4 12.5-14.4 12.5h-6v10.7h-7.9V1.1zM169.8 8.4H159V1.1h29.5v7.3h-10.8v28.5h-7.9zM235.7 1.1h7.8v28.6h17.8v7.2h-25.6zM269.5 1.1h7.9v15.7l14.5-15.7h9.4l-14.5 15.2L302 36.9h-9.4l-11.1-15.2-4.1 4.2v11h-7.9zM212 .9h-7.2l-15.3 36h8l3.2-8.1 2.9-6.9h-.1l4.8-11.6 4.7 11.6 2.8 6.9 3.3 8.1h8.2z"/></svg>