<svg width="32" height="32" viewBox="0 0 32 32" xmlns="http://www.w3.org/2000/svg"><g clip-path="url(#clip0_3960_37120)"><path d="M16 32C24.8366 32 32 24.8366 32 16C32 7.16344 24.8366 0 16 0C7.16344 0 0 7.16344 0 16C0 24.8366 7.16344 32 16 32Z" fill="#E2F6F0"/><path fill-rule="evenodd" clip-rule="evenodd" d="M23 8.5C23 8.22386 22.7761 8 22.5 8H20.9949C20.1788 8 19.4736 8.57012 19.3026 9.36812L19.1672 10H8.5C8.35303 10 8.2135 10.0647 8.11849 10.1768C8.02349 10.289 7.98264 10.4372 8.00681 10.5822L8.7497 15.0396C8.93825 16.1708 9.91704 17 11.0639 17H14.3615L14.7615 18H10.5C10.2238 18 9.99997 18.2239 9.99997 18.5C9.99997 18.7761 10.2238 19 10.5 19H15.1615L17.0357 23.6857C17.1137 23.8805 17.3049 24.006 17.5147 23.9998C17.7244 23.9936 17.908 23.8572 17.9743 23.6581L19.2185 19.9256L23.1464 23.8536C23.3417 24.0488 23.6583 24.0488 23.8535 23.8536C24.0488 23.6583 24.0488 23.3417 23.8535 23.1465L19.9256 19.2185L23.6581 17.9744C23.8572 17.908 23.9936 17.7244 23.9998 17.5147C24.0059 17.305 23.8805 17.1137 23.6857 17.0358L19.0772 15.1924L20.2804 9.57765C20.3526 9.24072 20.6504 9 20.9949 9H22.5C22.7761 9 23 8.77614 23 8.5ZM9.09023 11H18.9529L18.1353 14.8156L13.6857 13.0358C13.5 12.9615 13.2879 13.005 13.1464 13.1465C13.005 13.2879 12.9615 13.5 13.0357 13.6857L13.9615 16H11.0639C10.4059 16 9.84428 15.5243 9.73609 14.8752L9.09023 11ZM14.3975 14.3975L22.0469 17.4573L18.8419 18.5257C18.6926 18.5754 18.5754 18.6926 18.5256 18.8419L17.4573 22.047L15.9684 18.3248C15.9658 18.3178 15.963 18.3109 15.9601 18.3041L14.3975 14.3975Z" fill="#37A98D"/><path d="M12 20C12 19.7239 11.7761 19.5 11.5 19.5C11.2238 19.5 11 19.7239 11 20V20.5C11 20.7761 11.2238 21 11.5 21C11.7761 21 12 20.7761 12 20.5V20Z" fill="#37A98D"/><path d="M15 20C15 19.7239 14.7761 19.5 14.5 19.5C14.2238 19.5 14 19.7239 14 20V20.5C14 20.7761 14.2238 21 14.5 21C14.7761 21 15 20.7761 15 20.5V20Z" fill="#37A98D"/></g><defs><clipPath id="clip0_3960_37120"><rect width="32" height="32" fill="white"/></clipPath></defs></svg>