<svg width="32" height="32" viewBox="0 0 32 32" xmlns="http://www.w3.org/2000/svg"><g clip-path="url(#clip0_3960_37169)"><path d="M16 32C24.8366 32 32 24.8366 32 16C32 7.16344 24.8366 0 16 0C7.16344 0 0 7.16344 0 16C0 24.8366 7.16344 32 16 32Z" fill="#E2F6F0"/><path d="M12 10.5002C12 10.2241 11.7761 10.0002 11.5 10.0002C11.2239 10.0002 11 10.2241 11 10.5002V11.5002C11 11.7764 11.2239 12.0002 11.5 12.0002C11.7761 12.0002 12 11.7764 12 11.5002V10.5002Z" fill="#37A98D"/><path d="M14.5 10.5002C14.5 10.2241 14.2761 10.0002 14 10.0002C13.7239 10.0002 13.5 10.2241 13.5 10.5002V11.5002C13.5 11.7764 13.7239 12.0002 14 12.0002C14.2761 12.0002 14.5 11.7764 14.5 11.5002V10.5002Z" fill="#37A98D"/><path d="M17 10.5002C17 10.2241 16.7761 10.0002 16.5 10.0002C16.2239 10.0002 16 10.2241 16 10.5002V11.5002C16 11.7764 16.2239 12.0002 16.5 12.0002C16.7761 12.0002 17 11.7764 17 11.5002V10.5002Z" fill="#37A98D"/><path d="M12 13.5002C12 13.2241 11.7761 13.0002 11.5 13.0002C11.2239 13.0002 11 13.2241 11 13.5002V14.5002C11 14.7764 11.2239 15.0002 11.5 15.0002C11.7761 15.0002 12 14.7764 12 14.5002V13.5002Z" fill="#37A98D"/><path d="M14.5 13.5002C14.5 13.2241 14.2761 13.0002 14 13.0002C13.7239 13.0002 13.5 13.2241 13.5 13.5002V14.5002C13.5 14.7764 13.7239 15.0002 14 15.0002C14.2761 15.0002 14.5 14.7764 14.5 14.5002V13.5002Z" fill="#37A98D"/><path d="M17 13.5002C17 13.2241 16.7761 13.0002 16.5 13.0002C16.2239 13.0002 16 13.2241 16 13.5002V14.5002C16 14.7764 16.2239 15.0002 16.5 15.0002C16.7761 15.0002 17 14.7764 17 14.5002V13.5002Z" fill="#37A98D"/><path d="M12 16.5002C12 16.2241 11.7761 16.0002 11.5 16.0002C11.2239 16.0002 11 16.2241 11 16.5002V17.5002C11 17.7764 11.2239 18.0002 11.5 18.0002C11.7761 18.0002 12 17.7764 12 17.5002V16.5002Z" fill="#37A98D"/><path d="M14.5 16.5002C14.5 16.2241 14.2761 16.0002 14 16.0002C13.7239 16.0002 13.5 16.2241 13.5 16.5002V17.5002C13.5 17.7764 13.7239 18.0002 14 18.0002C14.2761 18.0002 14.5 17.7764 14.5 17.5002V16.5002Z" fill="#37A98D"/><path fill-rule="evenodd" clip-rule="evenodd" d="M8.5 8.00024C8.22386 8.00024 8 8.2241 8 8.50024V20.5002C8 20.7764 8.22386 21.0002 8.5 21.0002H17.5C17.5116 21.0002 17.5232 20.9998 17.5346 20.9991C17.6262 21.1575 17.7284 21.3091 17.8401 21.4529L15.1464 24.1466C14.9512 24.3418 14.9512 24.6584 15.1464 24.8537C15.3417 25.0489 15.6583 25.0489 15.8536 24.8537L18.5472 22.16C19.2246 22.6865 20.0757 23 21 23C23.2091 23 25 21.2091 25 19C25 16.7909 23.2091 15 21 15C20.6547 15 20.3196 15.0438 20 15.126V8.50024C20 8.2241 19.7761 8.00024 19.5 8.00024H8.5ZM17 19C17 19.3454 17.0438 19.6806 17.1261 20.0002H9V9.00024H19V15.5C19 15.5116 19.0004 15.5231 19.0012 15.5345C17.8049 16.2259 17 17.519 17 19ZM21 16C19.3431 16 18 17.3431 18 19C18 20.6569 19.3431 22 21 22C22.6569 22 24 20.6569 24 19C24 17.3431 22.6569 16 21 16Z" fill="#37A98D"/></g><defs><clipPath id="clip0_3960_37169"><rect width="32" height="32" fill="white"/></clipPath></defs></svg>